<svg xmlns="http://www.w3.org/2000/svg" width="512" height="512" viewBox="0 0 512 512" data-svgdocument="" id="_Vu_n21r4i8YQsOUFY7Pak" class="fl-svgdocument" x="0" y="0" overflow="hidden"><rect data-fl-background="" x="0" y="0" width="512" height="512" fill="transparent"></rect><path id="_aNvBQAGdBTcRelv892A_s" d="m 12 965.36303 c -2.7526942 0 -5 2.24729 -5 4.99994 l 0 49.99943 c 0 2.7527 2.2473058 4.9999 5 4.9999 l 30 0 0 11.9999 -5 0 c -0.52302 0 -0.998894 0.4764 -0.998894 1 0 0.5236 0.475874 1 0.998894 1 8.65625 0 17.3125 0 25.96875 0 0.578108 0.024 1.104502 -0.5504 1.03125 -1.125 -0.06117 -0.4918 -0.536655 -0.8952 -1.03125 -0.875 l -4.96875 0 0 -11.9999 30 0 c 2.752694 0 5 -2.2472 5 -4.9999 l 0 -49.99943 c 0 -2.75265 -2.247306 -4.99994 -5 -4.99994 z m 0 1.99997 76 0 c 1.679306 0 3 1.32074 3 2.99997 l 0 49.99943 c 0 1.6793 -1.320694 3 -3 3 l -76 0 c -1.679306 0 -3 -1.3207 -3 -3 l 0 -49.99943 c 0 -1.67923 1.320694 -2.99997 3 -2.99997 z m 43.875 11.96862 c -0.363198 0.0475 -0.689655 0.31117 -0.8125 0.65624 l -12 29.99964 c -0.188184 0.4909 0.08722 1.1087 0.578096 1.2969 0.490874 0.1882 1.10872 -0.087 1.296904 -0.5781 l 12 -29.9997 c 0.26994 -0.64786 -0.367491 -1.47276 -1.0625 -1.37498 z m -19.90625 4.99994 c -0.165992 0.012 -0.328759 0.0663 -0.46875 0.15625 l -18 9.99988 c -0.621399 0.34395 -0.621399 1.40603 0 1.74998 l 18 9.99993 c 0.458154 0.2618 1.11321 0.083 1.37501 -0.375 0.261799 -0.4582 0.08314 -1.1132 -0.37501 -1.375 L 20.0625 995.36268 36.5 986.23779 c 0.434082 -0.19274 0.685028 -0.725 0.557524 -1.18251 -0.127505 -0.45751 -0.617571 -0.78327 -1.088774 -0.72372 z m 27.9375 0 c -0.448043 0.007 -0.868091 0.35324 -0.961492 0.7915 -0.0934 0.43826 0.149169 0.92525 0.555242 1.11473 l 16.4375 9.12489 -16.4375 9.12492 c -0.458154 0.2618 -0.636809 0.9168 -0.37501 1.375 0.2618 0.4581 0.916856 0.6368 1.37501 0.375 l 18 -9.99993 c 0.621399 -0.34395 0.621399 -1.40603 0 -1.74998 l -18 -9.99988 c -0.175203 -0.11213 -0.386047 -0.16761 -0.59375 -0.15625 z M 44 1025.3623 l 12 0 0 11.9999 -12 0 z" fill="rgba(227,227,227,1)" fill-opacity="1" stroke="rgba(255,255,255,1)" marker="none" visibility="visible" display="inline" overflow="visible" transform="matrix(2.051491528741453, 0, 0, 2.051491528741453, 153.42542356292736, -1843.4778096160742)" direction="ltr" baseline-shift="baseline" color="rgb(0, 0, 0)" stroke-width="1" style="text-indent: 0px; text-transform: none;"></path><path text="LOGIK STORE" text-anchor="middle" font-size="100" letter-spacing="0" side="left" offset="0.5" dx="0" dy="0" space="preserve" href="" font-family="Exo" font-scale="contain" transform="matrix(0.8148726460314208, 0, 0, 0.8148726460314208, 255.1851273539686, 375.5805402462195)" x="0" y="0" fill="#f5f5f5" data-fl-textpath="" id="_fOU6kpe3PPhIlda_Y4qMd" d="M-277.25000000000006 0Q-284.25000000000006 0 -288.15000000000003-3.35Q-292.05000000000007-6.7 -292.05000000000007-14.8L-292.05000000000007-14.8L-292.05000000000007-73.6L-284.05000000000007-73.6L-284.05000000000007-15.9Q-284.05000000000007-11 -281.75000000000006-9.15Q-279.45000000000005-7.3 -275.55000000000007-7.3L-275.55000000000007-7.3L-249.15000000000006-7.3L-249.15000000000006 0L-277.25000000000006 0ZM-212.75000000000006 0.6Q-223.15000000000006 0.6 -229.10000000000008-2.15Q-235.05000000000007-4.9 -238.10000000000008-12.85Q-241.15000000000006-20.8 -241.15000000000006-36.5L-241.15000000000006-36.5Q-241.15000000000006-52.1 -238.00000000000006-60.25Q-234.85000000000008-68.4 -228.85000000000008-71.3Q-222.85000000000008-74.2 -212.75000000000006-74.2L-212.75000000000006-74.2Q-202.35000000000008-74.2 -196.35000000000008-71.35Q-190.35000000000008-68.5 -187.35000000000008-60.35Q-184.35000000000008-52.2 -184.35000000000008-36.5L-184.35000000000008-36.5Q-184.35000000000008-20.8 -187.40000000000006-12.85Q-190.45000000000007-4.9 -196.40000000000006-2.15Q-202.35000000000008 0.6 -212.75000000000006 0.6L-212.75000000000006 0.6ZM-212.75000000000006-6.5Q-204.75000000000006-6.5 -200.50000000000006-8.7Q-196.25000000000006-10.9 -194.25000000000006-17.3Q-192.25000000000006-23.7 -192.25000000000006-36.5L-192.25000000000006-36.5Q-192.25000000000006-49.8 -194.25000000000006-56.3Q-196.25000000000006-62.8 -200.50000000000006-64.95Q-204.75000000000006-67.1 -212.75000000000006-67.1L-212.75000000000006-67.1Q-220.35000000000008-67.1 -224.65000000000006-64.95Q-228.95000000000007-62.8 -231.10000000000008-56.2Q-233.25000000000006-49.6 -233.25000000000006-36.5L-233.25000000000006-36.5Q-233.25000000000006-23.6 -231.35000000000008-17.25Q-229.45000000000007-10.9 -225.20000000000007-8.7Q-220.95000000000007-6.5 -212.75000000000006-6.5L-212.75000000000006-6.5ZM-149.15000000000003 0.5Q-158.25000000000006 0.5 -163.35000000000005-3.45Q-168.45000000000005-7.4 -170.50000000000006-15.45Q-172.55000000000004-23.5 -172.55000000000004-37L-172.55000000000004-37Q-172.55000000000004-50.1 -170.35000000000005-58.1Q-168.15000000000003-66.1 -162.70000000000005-70.15Q-157.25000000000006-74.2 -147.65000000000003-74.2L-147.65000000000003-74.2Q-141.95000000000005-74.2 -135.65000000000003-73.5Q-129.35000000000005-72.8 -123.95000000000005-71.6L-123.95000000000005-71.6L-123.95000000000005-65.7Q-127.95000000000005-66.2 -134.25000000000006-66.65Q-140.55000000000004-67.1 -146.45000000000005-67.1L-146.45000000000005-67.1Q-153.65000000000003-67.1 -157.60000000000005-64.1Q-161.55000000000004-61.1 -163.10000000000005-54.65Q-164.65000000000003-48.2 -164.65000000000003-36.9L-164.65000000000003-36.9Q-164.65000000000003-24.9 -163.10000000000005-18.5Q-161.55000000000004-12.1 -157.75000000000006-9.45Q-153.95000000000005-6.8 -146.75000000000006-6.8L-146.75000000000006-6.8Q-142.35000000000005-6.8 -137.50000000000006-7.9Q-132.65000000000003-9 -128.55000000000004-10.6L-128.55000000000004-10.6L-128.55000000000004-32.3L-146.35000000000005-32.3L-146.35000000000005-38.2Q-139.85000000000005-39.2 -129.85000000000005-39.2L-129.85000000000005-39.2Q-124.05000000000004-39.2 -120.95000000000005-38.8L-120.95000000000005-38.8L-120.95000000000005 0L-126.75000000000004 0L-127.95000000000005-5.2Q-132.45000000000005-2.9 -137.95000000000005-1.2Q-143.45000000000005 0.5 -149.15000000000003 0.5L-149.15000000000003 0.5ZM-105.45000000000005 0L-105.45000000000005-73.6L-97.45000000000005-73.6L-97.45000000000005 0L-105.45000000000005 0ZM-82.05000000000004 0L-82.05000000000004-73.6L-74.05000000000004-73.6L-74.05000000000004-40.3L-61.15000000000004-40.3L-40.950000000000045-73.6L-32.55000000000004-73.6L-54.850000000000044-36.8L-32.25000000000004 0L-40.75000000000004 0L-61.15000000000004-33.1L-74.05000000000004-33.1L-74.05000000000004 0L-82.05000000000004 0ZM 26.34999999999996 0.6Q 21.649999999999956 0.6  14.699999999999957 0.05Q 7.749999999999957-0.5  4.049999999999957-1.2L 4.049999999999957-1.2L 4.049999999999957-7.3Q 11.849999999999957-6.5  26.049999999999958-6.5L 26.049999999999958-6.5Q 33.649999999999956-6.5  37.84999999999996-8.9Q 42.049999999999955-11.3  42.049999999999955-17.6L 42.049999999999955-17.6L 42.049999999999955-22.6Q 42.049999999999955-33  31.049999999999955-33L 31.049999999999955-33L 23.149999999999956-33Q 13.649999999999958-33  8.699999999999957-37.15Q 3.7499999999999574-41.3  3.7499999999999574-50.8L 3.7499999999999574-50.8L 3.7499999999999574-55Q 3.7499999999999574-65.1  9.149999999999958-69.65Q 14.549999999999958-74.2  25.149999999999956-74.2L 25.149999999999956-74.2Q 29.649999999999956-74.2  35.99999999999996-73.55Q 42.34999999999996-72.9  46.34999999999996-72.1L 46.34999999999996-72.1L 46.34999999999996-66.1Q 32.84999999999996-67  25.949999999999957-67L 25.949999999999957-67Q 18.549999999999958-67  14.949999999999957-64.35Q 11.349999999999957-61.7  11.349999999999957-54.7L 11.349999999999957-54.7L 11.349999999999957-51.3Q 11.349999999999957-45.5  14.399999999999956-43.05Q 17.449999999999957-40.6  23.449999999999957-40.6L 23.449999999999957-40.6L 31.94999999999996-40.6Q 40.649999999999956-40.6  45.149999999999956-35.95Q 49.649999999999956-31.3  49.649999999999956-23.5L 49.649999999999956-23.5L 49.649999999999956-17.8Q 49.649999999999956-7.5  43.399999999999956-3.45Q 37.149999999999956 0.6  26.34999999999996 0.6L 26.34999999999996 0.6ZM 79.94999999999996 0L 79.94999999999996-66.4L 57.14999999999997-66.4L 57.14999999999997-73.6L 110.54999999999997-73.6L 110.54999999999997-66.4L 87.84999999999997-66.4L 87.84999999999997 0L 79.94999999999996 0ZM 145.94999999999993 0.6Q 135.54999999999995 0.6  129.59999999999994-2.15Q 123.64999999999995-4.9  120.59999999999995-12.85Q 117.54999999999995-20.8  117.54999999999995-36.5L 117.54999999999995-36.5Q 117.54999999999995-52.1  120.69999999999995-60.25Q 123.84999999999995-68.4  129.84999999999994-71.3Q 135.84999999999994-74.2  145.94999999999993-74.2L 145.94999999999993-74.2Q 156.34999999999997-74.2  162.34999999999997-71.35Q 168.34999999999997-68.5  171.34999999999997-60.35Q 174.34999999999997-52.2  174.34999999999997-36.5L 174.34999999999997-36.5Q 174.34999999999997-20.8  171.29999999999995-12.85Q 168.24999999999994-4.9  162.29999999999995-2.15Q 156.34999999999997 0.6  145.94999999999993 0.6L 145.94999999999993 0.6ZM 145.94999999999993-6.5Q 153.94999999999993-6.5  158.19999999999993-8.7Q 162.44999999999993-10.9  164.44999999999993-17.3Q 166.44999999999993-23.7  166.44999999999993-36.5L 166.44999999999993-36.5Q 166.44999999999993-49.8  164.44999999999993-56.3Q 162.44999999999993-62.8  158.19999999999993-64.95Q 153.94999999999993-67.1  145.94999999999993-67.1L 145.94999999999993-67.1Q 138.34999999999994-67.1  134.04999999999995-64.95Q 129.74999999999994-62.8  127.59999999999995-56.2Q 125.44999999999995-49.6  125.44999999999995-36.5L 125.44999999999995-36.5Q 125.44999999999995-23.6  127.34999999999995-17.25Q 129.24999999999994-10.9  133.49999999999994-8.7Q 137.74999999999994-6.5  145.94999999999993-6.5L 145.94999999999993-6.5ZM 187.94999999999996 0L 187.94999999999996-73.6L 216.95-73.6Q 225.54999999999995-73.6  230.79999999999995-69Q 236.04999999999995-64.4  236.04999999999995-51.9L 236.04999999999995-51.9Q 236.04999999999995-41.2  232.04999999999995-36.8Q 228.04999999999995-32.4  222.04999999999995-31.2L 222.04999999999995-31.2L 237.14999999999998 0L 229.04999999999995 0L 214.74999999999997-30.1L 209.24999999999997-30.2L 195.94999999999996-30.5L 195.94999999999996 0L 187.94999999999996 0ZM 195.94999999999996-36.6L 215.74999999999997-36.6Q 221.64999999999998-36.6  224.89999999999998-39.8Q 228.14999999999998-43  228.14999999999998-51.9L 228.14999999999998-51.9Q 228.14999999999998-60.3  224.84999999999997-63.35Q 221.54999999999995-66.4  215.74999999999997-66.4L 215.74999999999997-66.4L 195.94999999999996-66.4L 195.94999999999996-36.6ZM 263.75 0.4Q 257.45 0.4  253.1-2.55Q 248.74999999999997-5.5  248.74999999999997-13.9L 248.74999999999997-13.9L 248.74999999999997-58.8Q 248.74999999999997-66.6  252.95-70.1Q 257.15-73.6  263.25-73.6L 263.25-73.6Q 279.25-73.3  288.15-72.9L 288.15-72.9L 294.04999999999995-72.7L 294.04999999999995-66.3L 265.25-66.3Q 256.75-66.3  256.75-57.5L 256.75-57.5L 256.75-40.1L 289.65-39.6L 289.65-33.5L 256.75-33L 256.75-15.7Q 256.75-10.6  259.15-8.8Q 261.54999999999995-7  265.65-7L 265.65-7L 294.04999999999995-7L 294.04999999999995-0.6Q 275.04999999999995 0.4  263.75 0.4L 263.75 0.4Z" font-style="normal" font-weight="400"></path></svg>